<svg xmlns="http://www.w3.org/2000/svg" width="64" height="64" viewBox="0 0 24 24" role="img" aria-labelledby="title">
  <title>Barcode Scan</title>
  <defs>
    <style>
      .stroke{stroke:currentColor;stroke-width:1.75;fill:none;stroke-linecap:round;stroke-linejoin:round}
      .fill{fill:currentColor}
      .accent{stroke:currentColor;stroke-width:2.2;opacity:.65}
    </style>
  </defs>
  <!-- Corner brackets -->
  <path class="stroke" d="M4 8V5a1 1 0 0 1 1-1h3M16 4h3a1 1 0 0 1 1 1v3M20 16v3a1 1 0 0 1-1 1h-3M8 20H5a1 1 0 0 1-1-1v-3"/>
  <!-- Barcode -->
  <path class="stroke" d="M6.5 11v2M8 10v4M9.5 10v4M11 10v4M13 10v4M14.5 10v4M16 10v4M17.5 11v2"/>
  <!-- Scan line -->
  <path class="accent" d="M5 12h14"/>
</svg>
